#!OML:ASF H:\Male1\Project 1\Capture day 1\Session 1\Male1.ASF
:FULLY-SPECIFIED
:DEGREES
338
root 3.10717 15.2488 -1.62546 100.54 85.9264 -254.444
lowerback 6.38855 0.865459 -6.58865
upperback 4.71757 1.07483 -3.33429
thorax 1.26606 0.524152 0.192223
lowerneck -5.85001 3.19275 6.94748
upperneck 10.9253 3.98336 -2.67078
head 4.42566 2.1279 -1.72351
rclavicle -1.59028e-015 4.85035e-014
rhumerus -33.0219 8.69879 -91.7696
rradius 33.4774
rwrist -19.063
rhand -16.0685 0.600555
rfingers 7.12502
rthumb 10.1341 -29.1354
lclavicle -1.59028e-015 4.85035e-014
lhumerus -15.6854 -14.9294 90.2935
lradius 27.6279
lwrist -1.21354
lhand -20.4363 12.9978
lfingers 7.12502
lthumb 5.91863 42.8952
rfemur -22.1813 9.4011 21.2976
rtibia 64.1193
rfoot -14.5122 -21.6386
rtoes -31.9266
lfemur 2.34832 -11.9961 -32.4735
ltibia 20.3215
lfoot -24.8066 21.7617
ltoes 3.90834
339
root 3.28011 15.2463 -1.65076 104.253 85.7895 -250.738
lowerback 6.40896 0.745758 -6.72909
upperback 4.792 0.914565 -3.27873
thorax 1.33916 0.438016 0.336169
lowerneck -6.0694 3.16326 6.97937
upperneck 10.9754 3.92356 -2.68102
head 4.47571 2.09728 -1.73196
rclavicle 8.24956e-015 -3.97569e-014
rhumerus -33.1537 8.26652 -91.5701
rradius 33.7429
rwrist -18.7793
rhand -15.9369 0.791388
rfingers 7.12502
rthumb 10.261 -28.9383
lclavicle 8.24956e-015 -3.97569e-014
lhumerus -15.3818 -15.7002 90.5582
lradius 28.5588
lwrist 0.0723616
lhand -20.4737 13.4297
lfingers 7.12502
lthumb 5.88247 43.328
rfemur -23.2939 9.67017 21.1276
rtibia 61.736
rfoot -15.9287 -22.6547
rtoes -31.9979
lfemur 3.35941 -12.1885 -32.8804
ltibia 19.9373
lfoot -25.1863 21.9951
ltoes 3.74834
340
root 3.4581 15.2439 -1.67618 108.121 85.8161 -246.93
lowerback 6.41932 0.597411 -6.70655
upperback 4.80779 0.713716 -3.14688
thorax 1.35883 0.333669 0.470549
lowerneck -6.14495 3.16589 7.04071
upperneck 10.8864 3.92051 -2.7666
head 4.46377 2.0905 -1.76777
rclavicle -5.46658e-015 2.78299e-014
rhumerus -33.3419 8.16119 -91.4561
rradius 33.9283
rwrist -18.6722
rhand -15.7569 0.650386
rfingers 7.12502
rthumb 10.4347 -29.0707
lclavicle -5.46658e-015 2.78299e-014
lhumerus -15.2795 -16.3024 90.8278
lradius 29.6056
lwrist 1.34795
lhand -20.6762 13.7103
lfingers 7.12502
lthumb 5.68694 43.614
rfemur -24.2017 9.9412 21.1092
rtibia 58.8345
rfoot -16.6654 -23.108
rtoes -32.3276
lfemur 4.48367 -12.3585 -33.0848
ltibia 19.2531
lfoot -25.3511 22.4533
ltoes 3.22693
341
root 3.63765 15.249 -1.69972 110.802 86.178 -244.388
lowerback 6.44509 0.525599 -6.41645
upperback 4.73831 0.611524 -2.92692
thorax 1.2743 0.284137 0.541937
lowerneck -6.09703 3.16675 7.10813
upperneck 10.6915 3.91974 -2.83263
head 4.39863 2.08578 -1.80068
rclavicle -6.85807e-015 -2.14687e-014
rhumerus -33.5979 7.95398 -91.3465
rradius 33.9506
rwrist -18.4075
rhand -15.6808 1.1493
rfingers 7.12502
rthumb 10.5081 -28.568
lclavicle -6.85807e-015 -2.14687e-014
lhumerus -15.3431 -16.8988 91.1433
lradius 30.6808
lwrist 2.4417
lhand -21.3998 13.3064
lfingers 7.12502
lthumb 4.98836 43.2277
rfemur -24.9729 10.4204 21.3725
rtibia 55.4781
rfoot -17.1217 -23.123
rtoes -33.8361
lfemur 5.71864 -12.509 -32.9564
ltibia 18.1635
lfoot -25.7421 22.8737
ltoes 3.55944
342
root 3.81656 15.2567 -1.7213 112.543 86.5709 -242.76
lowerback 6.1424 0.477638 -6.13229
upperback 4.93939 0.595835 -2.70824
thorax 1.65013 0.266523 0.61388
lowerneck -6.26259 3.17591 7.19885
upperneck 10.4396 3.91119 -2.93619
head 4.35258 2.07208 -1.84649
rclavicle -5.46658e-015 -5.56597e-015
rhumerus -33.3585 7.67862 -91.1942
rradius 33.7531
rwrist -18.1344
rhand -15.8747 2.44934
rfingers 7.12502
rthumb 10.321 -27.2774
lclavicle -5.46658e-015 -5.56597e-015
lhumerus -15.0307 -17.4792 91.3381
lradius 31.723
lwrist 3.31411
lhand -22.2139 12.5208
lfingers 7.12502
lthumb 4.20225 42.4591
rfemur -25.5473 10.9915 21.6069
rtibia 51.8714
rfoot -17.1265 -22.9584
rtoes -35.0516
lfemur 7.07684 -12.5882 -32.8018
ltibia 16.8465
lfoot -26.1681 23.0199
ltoes 4.47211
343
root 3.99596 15.2564 -1.74528 113.024 86.6468 -242.322
lowerback 6.29256 0.445899 -6.1178
upperback 4.91958 0.535151 -2.56665
thorax 1.54774 0.235375 0.753644
lowerneck -6.42655 3.15028 7.34078
upperneck 10.508 3.87251 -3.15093
head 4.40562 2.04574 -1.93544
rclavicle -1.2921e-015 2.38542e-014
rhumerus -33.5331 7.47192 -91.0774
rradius 33.63
rwrist -17.9483
rhand -15.8632 2.52527
rfingers 7.12502
rthumb 10.3321 -27.2009
lclavicle -1.2921e-015 2.38542e-014
lhumerus -15.203 -17.9265 91.6527
lradius 32.8213
lwrist 4.00424
lhand -22.4121 11.9837
lfingers 7.12502
lthumb 4.01079 41.9257
rfemur -25.8504 11.4124 21.4803
rtibia 48.1857
rfoot -17.5326 -22.522
rtoes -33.4921
lfemur 8.6209 -12.5783 -32.9876
ltibia 15.3086
lfoot -25.8588 23.1318
ltoes 4.09528
344
root 4.17829 15.2493 -1.77164 112.183 86.544 -243.153
lowerback 6.42057 0.421618 -6.19148
upperback 4.94983 0.490874 -2.50141
thorax 1.51045 0.211204 0.863221
lowerneck -6.45801 3.15835 7.38316
upperneck 10.3962 3.88471 -3.26462
head 4.38016 2.04441 -1.97665
rclavicle -3.97569e-015 7.15625e-015
rhumerus -33.6558 7.22259 -90.9227
rradius 33.4556
rwrist -17.688
rhand -15.489 1.5129
rfingers 7.12502
rthumb 10.6931 -28.195
lclavicle -3.97569e-015 7.15625e-015
lhumerus -15.4316 -18.2539 91.9152
lradius 33.8925
lwrist 4.50167
lhand -22.1985 11.8455
lfingers 7.12502
lthumb 4.21711 41.7835
rfemur -25.9123 11.6457 21.1738
rtibia 44.5441
rfoot -18.0429 -22.1951
rtoes -32.0965
lfemur 10.3313 -12.4704 -33.3915
ltibia 13.5653
lfoot -25.2274 23.3752
ltoes 2.87955
345
root 4.36499 15.2403 -1.79439 111.457 86.7105 -243.802
lowerback 6.59891 0.452468 -5.99672
upperback 4.96202 0.523466 -2.37631
thorax 1.42051 0.231441 0.881099
lowerneck -6.42749 3.1498 7.34755
upperneck 10.2559 3.87545 -3.26917
head 4.33095 2.03598 -1.97388
rclavicle 3.67752e-015 -1.59028e-015
rhumerus -33.8015 6.79541 -90.7191
rradius 33.1794
rwrist -17.2102
rhand -15.2161 0.785299
rfingers 7.12502
rthumb 10.9563 -28.9088
lclavicle 3.67752e-015 -1.59028e-015
lhumerus -15.8585 -18.166 92.2055
lradius 34.9116
lwrist 4.39738
lhand -21.548 11.7852
lfingers 7.12502
lthumb 4.84525 41.7098
rfemur -25.7773 11.9585 21.2052
rtibia 41.1599
rfoot -18.5405 -22.1742
rtoes -31.8111
lfemur 12.2292 -12.189 -33.4995
ltibia 11.6223
lfoot -24.6804 23.5743
ltoes 2.23563
346
root 4.55457 15.2303 -1.81237 112.114 86.9797 -243.12
lowerback 6.64676 0.461355 -5.68249
upperback 4.96605 0.541138 -2.23457
thorax 1.39503 0.2444 0.851242
lowerneck -6.46978 3.09604 7.42079
upperneck 10.3191 3.80126 -3.34221
head 4.35608 1.99889 -2.01207
rclavicle -9.93923e-017 -1.98785e-014
rhumerus -33.9161 6.31856 -90.5523
rradius 32.8076
rwrist -16.6066
rhand -15.05 0.373087
rfingers 7.12502
rthumb 11.1165 -29.3125
lclavicle -9.93923e-017 -1.98785e-014
lhumerus -16.4006 -17.4045 92.4086
lradius 35.8757
lwrist 3.41689
lhand -20.0842 11.5012
lfingers 7.12502
lthumb 6.25849 41.3887
rfemur -25.6638 12.5199 21.3479
rtibia 38.1508
rfoot -19.1527 -22.7401
rtoes -31.4651
lfemur 14.1876 -11.6269 -33.3459
ltibia 9.43641
lfoot -23.9732 23.433
ltoes 1.88574
347
root 4.74079 15.2208 -1.82815 113.836 87.0889 -241.454
lowerback 6.59289 0.403194 -5.47827
upperback 4.9208 0.469241 -2.1531
thorax 1.38036 0.210758 0.825783
lowerneck -6.52579 3.06735 7.56619
upperneck 10.6006 3.75778 -3.40372
head 4.45326 1.98431 -2.05558
rclavicle 8.54774e-015 7.95139e-016
rhumerus -33.9785 6.01298 -90.4977
rradius 32.2232
rwrist -16.0426
rhand -14.9057 0.295395
rfingers 7.12502
rthumb 11.2557 -29.3826
lclavicle 8.54774e-015 7.95139e-016
lhumerus -16.9859 -15.9932 92.4271
lradius 36.6731
lwrist 1.84941
lhand -18.2839 10.7166
lfingers 7.12502
lthumb 7.99634 40.5453
rfemur -25.2406 12.9413 21.4496
rtibia 35.716
rfoot -21.4536 -22.7854
rtoes -26.4318
lfemur 16.1769 -11.1816 -33.2843
ltibia 6.98303
lfoot -23.0554 23.2969
ltoes 1.62446
348
root 4.9277 15.2101 -1.84228 113.102 87.0483 -242.338
lowerback 6.49235 0.361712 -5.43774
upperback 4.77325 0.407736 -2.14016
thorax 1.28526 0.181403 0.820277
lowerneck -6.49521 3.03848 7.73273
upperneck 10.8672 3.72214 -3.48916
head 4.53268 1.97433 -2.11084
rclavicle 2.18663e-015 -1.82882e-014
rhumerus -34.1117 5.7854 -90.487
rradius 31.5462
rwrist -15.5182
rhand -14.8255 0.308337
rfingers 7.12502
rthumb 11.3331 -29.3655
lclavicle 2.18663e-015 -1.82882e-014
lhumerus -17.6607 -14.1249 92.3686
lradius 37.2396
lwrist 0.166307
lhand -16.9623 9.36485
lfingers 7.12502
lthumb 9.27175 39.141
rfemur -24.903 13.4392 21.3331
rtibia 33.783
rfoot -22.5577 -23.4135
rtoes -24.4597
lfemur 18.1509 -10.6936 -33.379
ltibia 4.35745
lfoot -22.0469 23.0574
ltoes 2.02683
